<svg width="71" height="71" viewBox="0 0 71 71" fill="none" xmlns="http://www.w3.org/2000/svg">
<g clip-path="url(#clip0_327_3946)">
<path d="M32.0781 37.2305C31.6973 37.3938 31.4094 37.7187 31.2932 38.1165C31.1772 38.5142 31.245 38.9429 31.4781 39.2856C31.722 39.6438 31.8508 40.0618 31.8508 40.4941C31.8508 41.6802 30.8878 42.6451 29.7039 42.6451C29.4167 42.6451 29.132 42.5871 28.8576 42.4728C28.4772 42.3142 28.0458 42.3335 27.6803 42.5247C27.315 42.7162 27.0539 43.0603 26.9679 43.4636C26.846 44.0355 26.7842 44.6354 26.7842 45.2464C26.7842 50.051 30.6931 53.96 35.4978 53.96C40.3047 53.96 44.2154 50.0511 44.2154 45.2464C44.2154 40.4395 40.3047 36.5288 35.4978 36.5288C34.315 36.5288 33.1645 36.765 32.0781 37.2305ZM41.4419 45.2464C41.4419 48.5218 38.7754 51.1866 35.4978 51.1866C32.2792 51.1866 29.6503 48.6135 29.5601 45.4164C29.608 45.4178 29.6558 45.4185 29.7039 45.4185C32.417 45.4185 34.6243 43.2095 34.6243 40.4941C34.6243 40.1182 34.5818 39.7471 34.4988 39.3867C34.8267 39.3305 35.1604 39.3024 35.4978 39.3024C38.7754 39.3022 41.4419 41.9688 41.4419 45.2464Z" fill="white"/>
<path d="M70.8971 45.7664C71.0484 45.3919 71.0423 44.8943 70.8117 44.5484C67.2366 37.9296 61.8302 32.2838 55.1737 28.2202C48.8902 24.3844 41.9025 22.2717 35.4977 22.2717C29.0927 22.2717 22.1053 24.3843 15.8224 28.2202C9.15244 32.2924 3.73829 37.9527 0.165551 44.589C-0.0529954 44.9942 -0.0521633 45.4984 0.165551 45.9036C3.73842 52.5399 9.15258 58.2 15.8224 62.2722C22.1053 66.108 29.0927 68.2207 35.4977 68.2207C41.9025 68.2207 48.8902 66.1082 55.1737 62.2722C61.8438 58.2003 67.2589 52.5401 70.8339 45.9039C70.8577 45.8599 70.8784 45.8129 70.8971 45.7664ZM35.4977 25.0452C45.3341 25.0452 55.6305 30.1491 62.8612 38.1193C60.4816 36.7201 57.822 35.4737 54.9292 34.4109C48.7109 32.1264 41.81 30.8683 35.4977 30.8683C29.1852 30.8683 22.2845 32.1264 16.0667 34.4109C13.1743 35.4737 10.5153 36.7199 8.13639 38.119C15.3652 30.1491 25.6607 25.0452 35.4977 25.0452ZM49.4607 45.2463C49.4607 52.9433 43.1969 59.2052 35.4977 59.2052C27.8007 59.2052 21.5387 52.9433 21.5387 45.2463C21.5387 41.0214 23.4034 37.102 26.6663 34.4382C29.6055 33.921 32.5843 33.6417 35.4977 33.6417C38.4126 33.6417 41.393 33.9213 44.334 34.4391C47.5964 37.1058 49.4607 41.0247 49.4607 45.2463ZM35.4977 65.4473C23.0475 65.4473 9.86272 57.2719 3.09124 45.4569C7.35456 41.1036 14.2779 37.5339 21.89 35.4961C19.8719 38.3004 18.7652 41.6826 18.7652 45.2463C18.7652 54.4725 26.2713 61.9787 35.4976 61.9787C44.7261 61.9787 52.234 54.4725 52.234 45.2463C52.234 41.6845 51.1271 38.3023 49.1083 35.4971C56.7194 37.535 63.6428 41.1043 67.9075 45.4571C61.1329 57.272 47.9467 65.4473 35.4977 65.4473Z" fill="white"/>
<path d="M69.2062 7.11213L65.2794 3.18522C65.0193 2.92521 64.6667 2.77905 64.2989 2.77905C64.2988 2.77905 64.2986 2.77905 64.2986 2.77905C63.9307 2.77919 63.5779 2.92549 63.3179 3.18578L59.3949 7.11255C58.8537 7.65434 58.8541 8.53227 59.3959 9.07365C59.6666 9.3442 60.0213 9.4794 60.3759 9.4794C60.731 9.4794 61.0862 9.34378 61.3568 9.07268L62.912 7.51595V15.1328C62.912 15.8985 63.533 16.5195 64.2988 16.5195C65.0645 16.5195 65.6855 15.8985 65.6855 15.1328V7.51373L67.245 9.07323C67.7866 9.61461 68.6644 9.61461 69.2062 9.07323C69.7477 8.53172 69.7477 7.65365 69.2062 7.11213Z" fill="white"/>
<path d="M11.6048 7.11213L7.67789 3.18522C7.41774 2.92521 7.0651 2.77905 6.69734 2.77905H6.69692C6.32916 2.77919 5.97638 2.92549 5.71637 3.18578L1.79335 7.11269C1.25211 7.65448 1.25253 8.53241 1.79432 9.07378C2.065 9.34433 2.41973 9.47954 2.77431 9.47954C3.12945 9.47954 3.48459 9.34392 3.75528 9.07281L5.31048 7.51608V15.1328C5.31048 15.8985 5.93145 16.5195 6.6972 16.5195C7.46294 16.5195 8.08392 15.8985 8.08392 15.1328V7.51359L9.6437 9.07323C10.1854 9.61461 11.0631 9.61461 11.6049 9.07323C12.1464 8.53172 12.1464 7.65365 11.6048 7.11213Z" fill="white"/>
<path d="M69.6141 32.9383C69.1839 32.9383 68.7601 32.7389 68.489 32.3636C67.4597 30.9395 66.3196 29.6692 65.0039 28.4805C64.4356 27.9672 64.3913 27.0903 64.9046 26.5219C65.4181 25.9537 66.295 25.9094 66.8632 26.4226C68.3251 27.7434 69.5922 29.1553 70.7368 30.7391C71.1854 31.3598 71.0459 32.2268 70.4252 32.6752C70.1797 32.8529 69.8956 32.9383 69.6141 32.9383Z" fill="white"/>
<path d="M59.0499 23.5046C58.7781 23.5046 58.5038 23.425 58.2631 23.2589C56.829 22.2686 55.3306 21.4556 53.6821 20.7735C52.9743 20.4807 52.6382 19.6695 52.9309 18.962C53.2238 18.2542 54.035 17.9178 54.7424 18.2108C56.5744 18.9689 58.2415 19.8736 59.8391 20.9767C60.4692 21.4119 60.6275 22.2755 60.1922 22.9058C59.9231 23.2953 59.4902 23.5046 59.0499 23.5046Z" fill="white"/>
<path d="M45.4668 17.357C45.3306 17.357 45.1921 17.3368 45.0549 17.2942C43.3533 16.7656 41.6544 16.3349 39.8612 15.9778C39.1102 15.8282 38.6225 15.0979 38.7721 14.3467C38.9217 13.5957 39.6509 13.1083 40.4032 13.2576C42.2919 13.634 44.0827 14.0878 45.8778 14.6456C46.6091 14.8729 47.0179 15.6498 46.7907 16.3813C46.6061 16.9757 46.0581 17.357 45.4668 17.357Z" fill="white"/>
<path d="M1.38563 32.9384C1.10427 32.9384 0.82013 32.853 0.574542 32.6755C-0.0462923 32.227 -0.185658 31.36 0.262946 30.7393C1.40754 29.1556 2.67459 27.7436 4.13647 26.4229C4.70488 25.9095 5.58184 25.954 6.09507 26.5222C6.60843 27.0906 6.56406 27.9674 5.99578 28.4808C4.68006 29.6695 3.54004 30.9397 2.51068 32.3639C2.23957 32.739 1.81565 32.9384 1.38563 32.9384Z" fill="white"/>
<path d="M11.9457 23.5045C11.5047 23.5045 11.0714 23.2946 10.8023 22.9041C10.368 22.2733 10.5272 21.41 11.1579 20.9755C12.7673 19.8672 14.4357 18.9625 16.258 18.2102C16.9659 17.9181 17.7767 18.255 18.069 18.9628C18.3612 19.6706 18.0244 20.4814 17.3164 20.7739C15.6772 21.4507 14.1772 22.2639 12.731 23.26C12.4908 23.425 12.2168 23.5045 11.9457 23.5045Z" fill="white"/>
<path d="M25.5293 17.357C24.9374 17.357 24.3894 16.9753 24.2051 16.3804C23.9784 15.6489 24.3876 14.872 25.1192 14.6453C26.9278 14.0848 28.7197 13.6309 30.5973 13.2576C31.3484 13.1083 32.0786 13.596 32.2278 14.3472C32.3772 15.0983 31.8895 15.8284 31.1383 15.9777C29.3561 16.3321 27.656 16.7627 25.9403 17.2943C25.8036 17.3368 25.6653 17.357 25.5293 17.357Z" fill="white"/>
</g>
<defs>
<clipPath id="clip0_327_3946">
<rect width="71" height="71" fill="white"/>
</clipPath>
</defs>
</svg>
