<svg width="69" height="69" viewBox="0 0 69 69" fill="none" xmlns="http://www.w3.org/2000/svg">
<path d="M28.3467 29.4253C25.3613 32.4095 23.4455 36.1916 22.8029 40.3639C21.9922 45.6381 20.9928 50.9554 19.8349 56.1703L17.2754 67.688L19.3799 68.1559L21.9394 56.6382C23.108 51.3781 24.1161 46.0133 24.9333 40.6928C25.5058 36.9765 27.2125 33.6073 29.8711 30.9498L28.3467 29.4253Z" fill="white"/>
<path d="M22.9565 13.6998L24.481 12.1754L23.5624 11.2568C21.8665 9.55982 19.6089 8.62509 17.209 8.62509C14.4684 8.62509 11.8777 9.49082 9.74948 11.0433L11.8367 1.30462L9.72684 0.851807L6.92264 13.9359C6.76847 14.1516 6.60136 14.3542 6.46013 14.5817C5.05533 16.8296 4.3125 19.4204 4.3125 22.0715V29.7014C4.3125 32.2145 4.46991 34.7534 4.78256 37.2482C5.18362 40.461 5.31947 43.7332 5.1847 46.9697L4.31358 67.8767L6.46767 67.9672L7.3388 47.0592C7.47788 43.703 7.3388 40.3112 6.92156 36.9798C6.62184 34.5734 6.46875 32.125 6.46875 29.7014V22.0715C6.46875 19.8246 7.09838 17.6307 8.28863 15.7256C10.2228 12.6292 13.5574 10.7813 17.209 10.7813C19.0332 10.7813 20.7485 11.4918 22.038 12.7813L22.9565 13.6998Z" fill="white"/>
<path d="M35.574 57.1407L35.4457 57.1396L35.4004 59.2959L35.574 59.297C36.278 59.297 36.9874 59.2625 37.6817 59.1945L37.4725 57.0491C36.8472 57.1105 36.2079 57.1407 35.574 57.1407Z" fill="white"/>
<path d="M47.3512 53.1354C47.3955 52.4001 47.4321 51.6648 47.4364 50.9285L48.024 49.7533C49.0515 47.6995 49.5938 45.3998 49.5938 43.1045C49.5938 40.076 48.6849 37.1586 46.9664 34.6671L29.2334 8.95489C28.4474 7.81316 28.0312 6.47844 28.0312 5.09413C28.0312 4.04404 28.2792 2.99286 28.7493 2.05382L28.9962 1.56111L27.0674 0.596191L26.8205 1.08889C26.2017 2.3255 25.875 3.71089 25.875 5.09413C25.875 6.91832 26.4227 8.67566 27.4577 10.1786L45.1907 35.8918C46.6613 38.0222 47.4375 40.5159 47.4375 43.1045C47.4375 45.0667 46.9739 47.0332 46.0952 48.7873L45.5551 49.8676L43.6651 50.8131C42.4393 51.4265 41.0669 51.75 39.6987 51.75C37.329 51.75 35.1016 50.8282 33.4273 49.1528L29.8727 45.5971L28.3482 47.1216L31.9028 50.6773C33.9836 52.7602 36.7533 53.9062 39.6987 53.9062C41.4 53.9062 43.1045 53.5041 44.6301 52.7429L45.223 52.4465C45.1896 53.1871 45.1325 53.9256 45.057 54.6631C44.5082 54.9714 43.9455 55.2614 43.3751 55.5105L44.2419 57.4856C44.3961 57.4177 44.5481 57.3411 44.7012 57.2689C44.4878 58.5163 44.2355 59.7572 43.9023 60.9798L42.0857 67.6383L44.1665 68.2043L45.9831 61.5458C46.6559 59.0802 47.086 56.5563 47.293 54.013L48.1749 55.2356C48.7852 54.7957 49.3803 54.317 49.942 53.8168L48.5059 52.2082C48.1372 52.5349 47.7426 52.8346 47.3512 53.1354Z" fill="white"/>
<path d="M41.4645 56.2307C40.8155 56.4366 40.1513 56.6102 39.4883 56.7461L39.9206 58.8581C40.657 58.7072 41.3955 58.5153 42.1157 58.2867L41.4645 56.2307Z" fill="white"/>
<path d="M54.0303 43.759L56.0798 44.4286C56.3127 43.7159 56.511 42.9785 56.6684 42.2378L54.5596 41.7893C54.4184 42.4556 54.2405 43.1176 54.0303 43.759Z" fill="white"/>
<path d="M49.9531 50.7721L51.5509 52.2211C52.0576 51.6605 52.5395 51.0708 52.9848 50.4638L51.2458 49.1895C50.8447 49.735 50.4102 50.2676 49.9531 50.7721Z" fill="white"/>
<path d="M54.8789 39.7742L57.0233 39.9974C57.1009 39.2502 57.1408 38.4891 57.1408 37.7344H54.9846C54.9846 38.4147 54.949 39.1014 54.8789 39.7742Z" fill="white"/>
<path d="M52.3623 47.4837L54.2264 48.5662C54.6059 47.9128 54.9541 47.2336 55.2614 46.5479L53.2949 45.666C53.0178 46.2827 52.7041 46.894 52.3623 47.4837Z" fill="white"/>
<path d="M30.7979 58.2542C31.517 58.5841 32.2738 58.8386 33.0479 59.0143L33.5234 56.9109C32.8937 56.7686 32.2781 56.5616 31.6949 56.2942L30.7979 58.2542Z" fill="white"/>
<path d="M28.5517 53.9795L27.0283 55.5061L27.4563 55.9331C27.8574 56.3341 28.293 56.7104 28.7522 57.0489L30.0331 55.3142C29.6611 55.0393 29.3075 54.7353 28.9808 54.4075L28.5517 53.9795Z" fill="white"/>
<path d="M42.71 21.3486L44.3506 19.9495L45.7498 21.5901L44.1091 22.9893L42.71 21.3486Z" fill="white"/>
<path d="M39.9121 18.0681L41.5528 16.6689L42.9519 18.3096L41.3113 19.7088L39.9121 18.0681Z" fill="white"/>
<path d="M31.5176 8.22681L33.1582 6.82763L34.5574 8.46827L32.9168 9.86745L31.5176 8.22681Z" fill="white"/>
<path d="M37.1162 14.7952L38.7569 13.396L40.156 15.0366L38.5154 16.4358L37.1162 14.7952Z" fill="white"/>
<path d="M34.3154 11.5071L35.9561 10.1079L37.3553 11.7485L35.7146 13.1477L34.3154 11.5071Z" fill="white"/>
<path d="M45.5068 24.6289L47.1475 23.2297L48.5467 24.8704L46.906 26.2695L45.5068 24.6289Z" fill="white"/>
<path d="M53.9004 34.4709L55.541 33.0718L56.9402 34.7124L55.2996 36.1116L53.9004 34.4709Z" fill="white"/>
<path d="M48.3047 27.9094L49.9453 26.5102L51.3445 28.1509L49.7039 29.5501L48.3047 27.9094Z" fill="white"/>
<path d="M51.1025 31.1899L52.7432 29.7908L54.1424 31.4314L52.5017 32.8306L51.1025 31.1899Z" fill="white"/>
<path d="M36.6562 38.8125H40.5224L39.1284 40.2065L40.6529 41.731L43.8872 38.4966C44.3088 38.0751 44.3088 37.3937 43.8872 36.9722L40.6529 33.7378L39.1284 35.2623L40.5224 36.6563H36.6562V38.8125Z" fill="white"/>
<path d="M49.5938 21.5625H53.4599L52.0659 22.9565L53.5904 24.481L56.8247 21.2466C57.2463 20.8251 57.2463 20.1437 56.8247 19.7222L53.5904 16.4878L52.0659 18.0123L53.4599 19.4063H49.5938V21.5625Z" fill="white"/>
<path d="M61.1372 24.0347L59.6128 25.5591L61.0068 26.9532H57.1406V29.1094H61.0068L59.6128 30.5034L61.1372 32.0279L64.3716 28.7935C64.7932 28.372 64.7932 27.6906 64.3716 27.269L61.1372 24.0347Z" fill="white"/>
</svg>
