<svg width="71" height="71" viewBox="0 0 71 71" fill="none" xmlns="http://www.w3.org/2000/svg">
<path d="M21.0781 44.3751C24.4062 54.3595 29.9531 57.6876 35.5 57.6876C41.0469 57.6876 46.5938 54.3595 49.9219 44.3751C49.9219 44.3751 54.3594 43.2657 54.3594 37.7189V37.7056C54.3565 36.5916 53.9616 35.5142 53.244 34.6623C52.5263 33.8104 51.5317 33.2382 50.4344 33.0462C47.1743 32.4651 44.0634 31.2374 41.2852 29.4354C38.5069 27.6334 36.1174 25.2936 34.2575 22.5537" stroke="white" stroke-width="2" stroke-linecap="round" stroke-linejoin="round"/>
<path d="M32.1719 18.8594C32.7549 20.1508 33.4529 21.3872 34.2575 22.5536C33.16 25.3813 31.318 27.8595 28.9268 29.7256C26.5355 31.5917 23.684 32.7762 20.6743 33.1537C19.5622 33.292 18.5388 33.8314 17.7961 34.6707C17.0535 35.51 16.6426 36.5914 16.6406 37.7121V37.7188C16.6406 43.2656 21.0781 44.375 21.0781 44.375" stroke="white" stroke-width="2" stroke-linecap="round" stroke-linejoin="round"/>
<path d="M43.2773 55.0029C43.4438 65.542 47.7481 67.6942 49.9225 68.7814" stroke="white" stroke-width="2" stroke-linecap="round" stroke-linejoin="round"/>
<path d="M21.0781 68.7814C23.2525 67.6942 27.5569 65.542 27.7233 55.0029" stroke="white" stroke-width="2" stroke-linecap="round" stroke-linejoin="round"/>
<path d="M18.5377 34.0023C18.5155 33.8581 18.4933 33.7028 18.46 33.5475C17.9998 30.8947 17.7623 28.208 17.75 25.5156C17.75 16.6406 25.5156 11.0938 35.5 11.0938C45.4844 11.0938 53.25 16.6406 53.25 25.5156C53.2383 28.336 52.9784 31.1499 52.4734 33.9247" stroke="white" stroke-width="2" stroke-linecap="round" stroke-linejoin="round"/>
<path d="M24.7383 13.723C22.0203 6.05719 28.2772 2.21875 35.4992 2.21875C42.7212 2.21875 48.9781 6.05719 46.2601 13.723" stroke="white" stroke-width="2" stroke-linecap="round" stroke-linejoin="round"/>
<path d="M54.3594 48.8125L57.6875 46.5938L59.9062 49.9219" stroke="white" stroke-width="2" stroke-linecap="round" stroke-linejoin="round"/>
<path d="M16.6406 48.8125L13.3125 46.5938L11.0938 49.9219" stroke="white" stroke-width="2" stroke-linecap="round" stroke-linejoin="round"/>
<path d="M57.6875 46.5938C56.6808 51.7825 53.943 56.4759 49.9219 59.9062" stroke="white" stroke-width="2" stroke-linecap="round" stroke-linejoin="round"/>
<path d="M13.3125 46.5938C14.3192 51.7825 17.057 56.4759 21.0781 59.9062" stroke="white" stroke-width="2" stroke-linecap="round" stroke-linejoin="round"/>
<path d="M46.5942 38.8282H45.4849C42.1567 41.0469 39.938 38.8282 39.938 38.8282L39.9258 38.8215" stroke="white" stroke-width="2" stroke-linecap="round" stroke-linejoin="round"/>
<path d="M24.4062 38.8282H25.5156C28.8438 41.0469 31.0625 38.8282 31.0625 38.8282L31.0747 38.8215" stroke="white" stroke-width="2" stroke-linecap="round" stroke-linejoin="round"/>
<path d="M31.6172 49.9219L31.6627 49.9574C31.6627 49.9574 32.6212 51.0312 35.5 51.0312C38.3788 51.0312 39.3373 49.9574 39.3373 49.9574L39.3828 49.9219" stroke="white" stroke-width="1.956" stroke-linecap="round" stroke-linejoin="round"/>
</svg>
