<svg width="58" height="58" viewBox="0 0 58 58" fill="none" xmlns="http://www.w3.org/2000/svg">
<g clip-path="url(#clip0_327_3924)">
<path d="M30.6992 15.4062C30.6992 6.91118 23.8388 0 15.4062 0C6.95082 0 0 6.95309 0 15.4062C0 23.2688 6.00866 29.7634 13.707 30.6058V40.8945H8.60938C7.67095 40.8945 6.91016 41.6553 6.91016 42.5938C6.91016 43.5322 7.67095 44.293 8.60938 44.293H13.707V49.3906C13.707 50.329 14.4678 51.0898 15.4062 51.0898C16.3447 51.0898 17.1055 50.329 17.1055 49.3906V44.293H22.2031C23.1415 44.293 23.9023 43.5322 23.9023 42.5938C23.9023 41.6553 23.1415 40.8945 22.2031 40.8945H17.1055V30.6043C24.7413 29.7563 30.6992 23.2645 30.6992 15.4062ZM3.39844 15.4062C3.39844 8.78507 8.78519 3.39844 15.4062 3.39844C21.9649 3.39844 27.3008 8.78507 27.3008 15.4062C27.3008 21.9649 21.9649 27.3008 15.4062 27.3008C8.78519 27.3008 3.39844 21.9649 3.39844 15.4062Z" fill="white"/>
<path d="M44.293 27.3943V12.7117L48.1892 16.6078C48.8527 17.2714 49.9286 17.2715 50.5922 16.6078C51.2558 15.9442 51.2558 14.8683 50.5922 14.2047L43.7953 7.40786C43.1318 6.74426 42.0559 6.74426 41.3923 7.40786L34.5954 14.2047C33.9318 14.8683 33.9318 15.9442 34.5954 16.6078C35.2589 17.2714 36.3348 17.2714 36.9984 16.6078L40.8945 12.7117V27.3958C33.2587 28.2438 27.3008 34.7356 27.3008 42.5938C27.3008 51.0889 34.1612 58.0001 42.5938 58.0001C51.0492 58.0001 58 51.047 58 42.5938C58 34.7313 51.9913 28.2367 44.293 27.3943ZM42.5938 54.6016C36.0351 54.6016 30.6992 49.215 30.6992 42.5938C30.6992 36.0352 36.0351 30.6993 42.5938 30.6993C49.2148 30.6993 54.6016 36.0352 54.6016 42.5938C54.6016 49.215 49.2148 54.6016 42.5938 54.6016Z" fill="white"/>
</g>
<defs>
<clipPath id="clip0_327_3924">
<rect width="58" height="58" fill="white"/>
</clipPath>
</defs>
</svg>
