<svg width="72" height="72" viewBox="0 0 72 72" fill="none" xmlns="http://www.w3.org/2000/svg">
<path d="M56.3816 51.75C56.3696 52.089 56.3632 52.4265 56.3625 52.7625C56.3625 54.675 58.275 54.675 58.275 57.5438C58.275 60.4125 55.4063 60.4125 54.45 60.4125C53.4938 60.4125 50.625 59.4562 50.625 53.7187C50.625 53.061 50.6509 52.4047 50.7026 51.75" stroke="white" stroke-width="2" stroke-linecap="round" stroke-linejoin="round"/>
<path d="M52.4336 43.875C57.054 30.7856 68.9801 20.25 69.7496 20.25C67.5063 23.2414 60.5842 33.2505 57.6727 43.875" stroke="white" stroke-width="2" stroke-linecap="round" stroke-linejoin="round"/>
<path d="M14.7375 52.875C14.8106 54.675 16.65 54.7324 16.65 57.5438C16.65 60.4125 13.7812 60.4125 12.825 60.4125C11.8687 60.4125 9 59.4562 9 53.7188C9 53.4375 9.00487 53.1562 9.01462 52.875" stroke="white" stroke-width="2" stroke-linecap="round" stroke-linejoin="round"/>
<path d="M10.8086 43.875C15.429 30.7856 27.3551 20.25 28.1246 20.25C25.8813 23.2414 18.9592 33.2505 16.0477 43.875" stroke="white" stroke-width="2" stroke-linecap="round" stroke-linejoin="round"/>
<path d="M69.75 50.6249C69.75 50.6249 61.875 48.3749 47.25 48.3749C46.7415 48.3749 46.2769 48.3895 45.8516 48.4143C45.3884 48.442 44.9381 48.5772 44.5362 48.8091C44.1343 49.0411 43.7919 49.3634 43.5362 49.7505C43.2804 50.1377 43.1183 50.5791 43.0627 51.0398C43.0071 51.5004 43.0595 51.9677 43.2158 52.4046C43.655 53.6389 43.8781 54.9398 43.875 56.2499C43.875 57.565 43.4407 64.1249 34.875 64.1249C31.7621 64.1249 25.875 61.5374 25.875 51.7499C25.8752 51.0524 25.631 50.377 25.1848 49.8409C24.7385 49.3049 24.1186 48.9422 23.4326 48.8159C21.639 48.5036 19.8205 48.356 18 48.3749C12.6783 48.4851 7.38968 49.2406 2.25 50.6249" stroke="white" stroke-width="2" stroke-linecap="round" stroke-linejoin="round"/>
<path d="M30.375 51.75C30.375 28.125 54 7.875 55.125 7.875C51.75 12.375 37.125 31.5 37.125 50.625C37.125 52.875 39.375 52.875 39.375 56.25C39.375 59.625 36 59.625 34.875 59.625C33.75 59.625 30.375 58.5 30.375 51.75Z" stroke="white" stroke-width="2" stroke-linecap="round" stroke-linejoin="round"/>
</svg>
