<svg width="70" height="70" viewBox="0 0 70 70" fill="none" xmlns="http://www.w3.org/2000/svg">
<path d="M27.0703 25.7442C26.8528 25.7442 26.6441 25.6577 26.4903 25.5039C26.3364 25.3501 26.25 25.1414 26.25 24.9238V23.9438C26.25 23.7263 26.3364 23.5176 26.4903 23.3638C26.6441 23.21 26.8528 23.1235 27.0703 23.1235C27.2879 23.1235 27.4965 23.21 27.6504 23.3638C27.8042 23.5176 27.8906 23.7263 27.8906 23.9438V24.9238C27.8906 25.1414 27.8042 25.3501 27.6504 25.5039C27.4965 25.6577 27.2879 25.7442 27.0703 25.7442Z" fill="white"/>
<path d="M55.3499 42.8668C54.2874 36.5586 49.8205 30.6337 46.5628 26.3074C44.8674 24.057 43.4018 22.1134 43.0026 20.8933C41.8279 17.2993 42.8506 13.2726 44.1461 8.17522C44.6383 6.24421 45.1923 4.05616 45.6697 1.70569C45.7132 1.49248 45.6703 1.27072 45.5503 1.08919C45.4303 0.907661 45.2431 0.781234 45.0299 0.737722C44.8167 0.69421 44.5949 0.737177 44.4134 0.857171C44.2318 0.977165 44.1054 1.16436 44.0619 1.37757C43.5921 3.68866 43.0649 5.7635 42.5553 7.76944C41.1952 13.125 40.1206 17.354 41.4429 21.4008C41.9274 22.8829 43.3953 24.8298 45.2524 27.2951C46.2018 28.5529 47.2567 29.9573 48.2953 31.4601C44.9801 32.1196 41.7842 33.489 38.6828 34.8239C34.4801 36.6324 30.5098 38.3403 26.3902 38.343H26.3831C22.5473 38.343 18.3872 36.7024 15.7447 35.1712C17.0341 31.2229 18.0411 27.1879 18.758 23.0967C19.3481 19.3692 18.5518 14.8455 17.7085 10.0565C17.157 7.22167 16.7509 4.36051 16.4917 1.48421C16.4871 1.37481 16.4605 1.26746 16.4137 1.16849C16.3669 1.06951 16.3007 0.980907 16.2191 0.907904C16.1375 0.834902 16.0421 0.778976 15.9385 0.743422C15.835 0.707869 15.7253 0.693409 15.6161 0.700893C15.5069 0.708378 15.4002 0.737656 15.3025 0.787002C15.2047 0.836348 15.1179 0.904763 15.047 0.988213C14.9761 1.07166 14.9226 1.16846 14.8897 1.2729C14.8569 1.37734 14.8452 1.4873 14.8555 1.59632C15.1168 4.53026 15.5292 7.44879 16.0909 10.3403C16.9112 14.9887 17.6828 19.3834 17.136 22.8408C16.4024 26.9806 15.3755 31.0632 14.0631 35.0574C13.4642 37.0163 12.8988 38.8658 12.4952 40.5398C10.3241 49.5326 8.03049 67.019 7.77619 68.9833C7.76247 69.0903 7.76999 69.199 7.79831 69.3031C7.82663 69.4071 7.87519 69.5046 7.94123 69.5899C8.00726 69.6752 8.08947 69.7466 8.18314 69.8001C8.27682 69.8536 8.38012 69.888 8.48713 69.9016C8.52229 69.9064 8.55774 69.9087 8.59323 69.9087C8.79235 69.9083 8.98455 69.8355 9.13397 69.7039C9.2834 69.5723 9.37985 69.3908 9.40534 69.1933C9.65854 67.2383 11.9417 49.834 14.0926 40.9243C14.1079 40.8603 14.1276 40.7914 14.1435 40.7269C19.7407 47.18 26.7878 54.1669 31.2902 54.4988C31.2902 54.5311 31.2853 54.565 31.2847 54.5973C31.2776 55.8124 31.2399 57.2097 31.1994 58.6895C31.1956 58.8246 31.1923 58.963 31.1885 59.1002C30.2428 61.9451 29.0474 64.7008 27.6163 67.3351C27.333 67.8716 27.0874 68.3348 26.8982 68.7422C26.8064 68.9394 26.7967 69.1651 26.8713 69.3695C26.9458 69.5739 27.0985 69.7403 27.2958 69.8321C27.4931 69.9239 27.7187 69.9336 27.9231 69.859C28.1275 69.7845 28.2939 69.6318 28.3857 69.4345C28.558 69.0648 28.7937 68.6191 29.0671 68.1018C29.6091 67.0764 30.3162 65.736 31.0982 63.9302C31.0732 65.6796 31.1369 67.4291 31.2891 69.172C31.3098 69.3738 31.4045 69.5608 31.555 69.6969C31.7055 69.8329 31.9011 69.9084 32.1039 69.9087C32.1324 69.9087 32.1586 69.9087 32.1887 69.9043C32.4051 69.8821 32.6038 69.7748 32.7411 69.6061C32.8784 69.4374 32.9431 69.2211 32.921 69.0047C32.6355 66.2287 32.7438 62.2469 32.8395 58.7344C32.8799 57.2458 32.9182 55.8392 32.9253 54.6071C32.9516 50.0505 46.21 38.0308 51.7734 37.3018C52.6981 39.1458 53.3583 41.1109 53.7345 43.1391C54.5745 48.1228 54.067 51.1782 52.7107 59.337C52.2853 61.8997 51.7548 65.0896 51.1669 68.9653C51.1343 69.1804 51.1884 69.3996 51.3174 69.5748C51.4465 69.75 51.6398 69.8667 51.8549 69.8994C51.896 69.9054 51.9375 69.9085 51.979 69.9087C52.1751 69.9084 52.3645 69.8379 52.5131 69.71C52.6617 69.5821 52.7595 69.4052 52.7889 69.2114C53.3752 65.3466 53.904 62.1638 54.3295 59.6061C55.6764 51.4834 56.2353 48.1206 55.3499 42.8668ZM39.63 42.9094C37.9429 44.4062 32.9581 49.0612 31.6194 52.8751C28.5946 52.9249 22.2006 47.6372 14.6553 38.8101C14.8435 38.1513 15.044 37.4728 15.2569 36.7746C18.1006 38.3578 22.386 39.9837 26.3847 39.9837H26.3929C30.8499 39.9837 35.1626 38.1243 39.3331 36.3311C42.57 34.9382 45.912 33.5098 49.2939 32.9503C49.8894 33.869 50.4647 34.8179 50.9968 35.7941C47.6789 36.5657 42.9605 39.9541 39.63 42.9094Z" fill="white"/>
<path d="M56.072 12.5427L54.8104 11.8525C54.4697 11.6669 54.1895 11.3873 54.0032 11.047L53.3131 9.78588C53.2108 9.59864 53.06 9.44239 52.8765 9.33353C52.693 9.22468 52.4835 9.16724 52.2702 9.16724C52.0568 9.16724 51.8474 9.22468 51.6639 9.33353C51.4804 9.44239 51.3296 9.59864 51.2273 9.78588L50.5371 11.047C50.3511 11.3877 50.0711 11.6679 49.7305 11.8542L48.4678 12.5449C48.2806 12.6472 48.1245 12.798 48.0158 12.9814C47.907 13.1649 47.8496 13.3742 47.8496 13.5875C47.8496 13.8007 47.907 14.0101 48.0158 14.1935C48.1245 14.377 48.2806 14.5278 48.4678 14.6301L49.7294 15.3197C50.0704 15.5059 50.3506 15.7863 50.5366 16.1274L51.2278 17.3907C51.3302 17.5778 51.481 17.734 51.6644 17.8427C51.8478 17.9515 52.0572 18.0089 52.2704 18.0089C52.4837 18.0089 52.693 17.9515 52.8765 17.8427C53.0599 17.734 53.2107 17.5778 53.3131 17.3907L54.0032 16.1291C54.1892 15.7881 54.4695 15.5079 54.8104 15.3219L56.0715 14.6317C56.2587 14.5294 56.415 14.3786 56.5238 14.1951C56.6327 14.0116 56.6901 13.8022 56.6901 13.5888C56.6901 13.3755 56.6327 13.1661 56.5238 12.9826C56.415 12.7991 56.2587 12.6482 56.0715 12.546L56.072 12.5427ZM54.0229 13.8787C53.4065 14.2154 52.8998 14.7223 52.5633 15.3388L52.2702 15.8748L51.977 15.3388C51.6405 14.7223 51.1339 14.2154 50.5174 13.8787L49.981 13.5856L50.518 13.2919C51.1339 12.9552 51.6403 12.4488 51.977 11.8328L52.2702 11.2963L52.5633 11.8328C52.8999 12.4492 53.4065 12.9558 54.0229 13.2924L54.5599 13.5856L54.0229 13.8787Z" fill="white"/>
<path d="M11.7524 31.0078L10.727 30.4473C10.4759 30.3104 10.2695 30.104 10.1326 29.8528L9.57041 28.8274C9.4737 28.651 9.33125 28.5039 9.15802 28.4016C8.9848 28.2993 8.78721 28.2456 8.58603 28.2461C8.38533 28.2464 8.18839 28.3006 8.01581 28.4031C7.84322 28.5055 7.70133 28.6525 7.60494 28.8285L7.04439 29.8539C6.90788 30.1041 6.70279 30.3101 6.45322 30.4478L5.42619 31.0078C5.2499 31.1041 5.1028 31.2461 5.00031 31.4189C4.89783 31.5917 4.84375 31.7888 4.84375 31.9897C4.84375 32.1906 4.89783 32.3878 5.00031 32.5606C5.1028 32.7333 5.2499 32.8753 5.42619 32.9716L6.45322 33.5333C6.70459 33.6703 6.91116 33.8769 7.04822 34.1283L7.60713 35.1531C7.70313 35.3291 7.84462 35.476 8.01682 35.5785C8.18902 35.6811 8.38561 35.7355 8.58603 35.7361C8.78728 35.7363 8.98488 35.6823 9.15808 35.5799C9.33129 35.4774 9.47371 35.3302 9.57041 35.1537L10.131 34.1283C10.268 33.8771 10.4743 33.6705 10.7254 33.5333L11.7497 32.9733C11.9262 32.877 12.0736 32.7349 12.1762 32.562C12.2789 32.389 12.3331 32.1917 12.3331 31.9906C12.3331 31.7895 12.2789 31.5921 12.1762 31.4191C12.0736 31.2462 11.9262 31.1041 11.7497 31.0078H11.7524ZM9.9401 32.0939C9.41354 32.3817 8.98074 32.8146 8.69322 33.3413L8.58986 33.5305L8.4865 33.3413C8.19885 32.8145 7.76561 32.3816 7.23853 32.0945L7.04986 31.99L7.23853 31.8872C7.76516 31.5992 8.19824 31.1663 8.4865 30.6398L8.58986 30.4511L8.69322 30.6398C8.98089 31.1663 9.41365 31.5993 9.9401 31.8872L10.1288 31.9906L9.9401 32.0939Z" fill="white"/>
</svg>
