<svg width="75" height="75" viewBox="0 0 75 75" fill="none" xmlns="http://www.w3.org/2000/svg">
<path d="M19.849 68.1737C19.3749 68.1737 18.9156 67.9219 18.6718 67.4759C18.2754 66.7487 9.0544 49.4264 18.6571 30.8023C23.5602 21.292 22.8758 13.4478 21.4388 8.54202C21.2312 7.83219 21.637 7.08889 22.3468 6.87996C23.0526 6.66835 23.7999 7.07818 24.0089 7.788C25.5839 13.1639 26.3459 21.7326 21.037 32.0304C12.0785 49.405 20.9325 66.0282 21.0223 66.1942C21.3772 66.8425 21.1374 67.6567 20.4879 68.0103C20.2857 68.1215 20.066 68.1737 19.849 68.1737Z" fill="white"/>
<path d="M55.1513 68.1736C54.9344 68.1736 54.7147 68.1214 54.5111 68.0102C53.8629 67.6567 53.6218 66.8437 53.9754 66.1955C54.0652 66.0281 62.8977 49.362 53.9607 32.0303C48.8701 22.1585 49.4004 13.8924 50.7397 8.69461C50.9259 7.97944 51.6558 7.54952 52.3723 7.73301C53.0875 7.91783 53.5187 8.64774 53.3352 9.36426C52.1111 14.1093 51.6384 21.6803 56.3419 30.8022C65.946 49.4263 56.725 66.7486 56.3272 67.4759C56.0835 67.9218 55.6241 68.1736 55.1513 68.1736Z" fill="white"/>
<path d="M38.1413 36.7916C27.8247 36.7916 20.0301 33.5613 19.5439 33.355L20.5886 30.8894C20.76 30.9617 37.8346 38.009 54.4056 30.8921L55.4623 33.3537C49.4569 35.9318 43.4623 36.7916 38.1413 36.7916Z" fill="white"/>
<path d="M37.5002 53.6706C37.0958 53.6706 36.7127 53.4872 36.4583 53.1724C30.3619 45.6255 19.6275 39.8291 17.5369 38.7443C16.8806 38.4028 16.6248 37.5952 16.965 36.9376C17.3065 36.28 18.1127 36.0242 18.7717 36.3657C20.8315 37.4358 30.9726 42.9122 37.5002 50.2608C41.6922 45.5372 47.348 41.5997 51.5065 39.0523C52.1386 38.6666 52.9623 38.8648 53.348 39.4943C53.7351 40.1251 53.5369 40.9501 52.906 41.3358C48.5708 43.9916 42.5574 48.201 38.5422 53.1724C38.2877 53.4885 37.9047 53.6706 37.5002 53.6706Z" fill="white"/>
<path d="M37.4994 62.104C36.7602 62.104 36.1602 61.5053 36.1602 60.7647V52.3312C36.1602 51.5906 36.7602 50.9919 37.4994 50.9919C38.2387 50.9919 38.8387 51.5906 38.8387 52.3312V60.7647C38.8387 61.5053 38.2387 62.104 37.4994 62.104Z" fill="white"/>
<path d="M37.4994 26.6397C36.7602 26.6397 36.1602 26.0397 36.1602 25.3004V23.4509C36.1602 22.7116 36.7602 22.1116 37.4994 22.1116C38.2387 22.1116 38.8387 22.7116 38.8387 23.4509V25.3004C38.8387 26.0397 38.2387 26.6397 37.4994 26.6397Z" fill="white"/>
<path d="M14.9838 20.0116H8.03557C7.29629 20.0116 6.69629 19.4116 6.69629 18.6723C6.69629 17.933 7.29629 17.333 8.03557 17.333H14.9838C15.7231 17.333 16.3231 17.933 16.3231 18.6723C16.3231 19.4116 15.7231 20.0116 14.9838 20.0116Z" fill="white"/>
<path d="M12.3143 25.4158C11.9715 25.4158 11.6286 25.2845 11.3674 25.0234C10.8438 24.4997 10.8438 23.6533 11.3674 23.1296L15.7951 18.7033L11.3058 14.214C10.7822 13.6903 10.7822 12.8439 11.3058 12.3202C11.8295 11.7966 12.6759 11.7966 13.1996 12.3202L18.6357 17.7564C18.8875 18.0082 19.0282 18.3484 19.0282 18.7033C19.0282 19.0582 18.8875 19.3997 18.6357 19.6501L13.2612 25.0234C13 25.2845 12.6572 25.4158 12.3143 25.4158Z" fill="white"/>
<path d="M66.9643 20.0116H60.016C59.2754 20.0116 58.6768 19.4116 58.6768 18.6723C58.6768 17.933 59.2754 17.333 60.016 17.333H66.9643C67.7049 17.333 68.3035 17.933 68.3035 18.6723C68.3035 19.4116 67.7049 20.0116 66.9643 20.0116Z" fill="white"/>
<path d="M62.6868 25.4158C62.344 25.4158 62.0011 25.2845 61.74 25.0234L56.3654 19.6501C55.8417 19.1278 55.8417 18.2801 56.3654 17.7564L61.8002 12.3202C62.3239 11.7966 63.1703 11.7966 63.694 12.3202C64.2176 12.8426 64.2176 13.6903 63.694 14.214L59.206 18.7033L63.6337 23.1296C64.1574 23.6533 64.1574 24.4997 63.6337 25.0234C63.3712 25.2845 63.0297 25.4158 62.6868 25.4158Z" fill="white"/>
</svg>
