<svg width="392" height="193" viewBox="0 0 392 193" fill="none" xmlns="http://www.w3.org/2000/svg">
<path opacity="0.1" d="M-21.0043 95.0517C-9.6615 89.8656 -2.09301 79.9262 3.75357 69.2091C9.48513 58.7019 13.4408 47.2848 19.6937 37.036C25.8619 26.9148 33.7502 17.3742 44.0403 11.2188C50.0358 7.62396 56.7434 5.48933 63.7039 4.94399C67.4775 4.64906 71.2724 4.54902 75.0433 4.58962C78.929 4.59794 82.9445 4.71035 86.7686 3.97605C88.371 3.66255 89.2592 6.01055 87.7211 6.73113C68.2478 15.8247 53.4283 33.3811 41.8905 51.012C35.8297 60.313 30.0913 69.6772 22.2488 77.6549C13.8729 86.1643 3.60257 92.14 -7.3323 96.7293C-13.5904 99.3669 -19.9801 101.703 -26.3266 104.075C-26.7424 104.238 -27.1799 104.385 -27.5958 104.549C-26.4072 104.419 -25.2143 104.327 -24.0083 104.176C-4.0177 101.967 15.179 96.6502 34.6498 91.8558C38.7016 90.8599 42.7555 89.8835 46.79 88.9093C51.3469 87.4834 55.2376 84.2966 58.4253 80.8121C62.1789 76.7331 65.3299 71.8328 67.4724 66.7274C69.7388 61.3126 71.2458 55.626 73.1206 50.057C75.052 44.2845 77.6454 38.7945 81.4196 34.0034C88.8965 24.4882 99.5617 17.9762 111.111 14.6802C117.325 12.8955 123.592 12.6825 129.99 12.396C137.19 12.0611 144.354 11.2173 151.461 10.025C167.222 7.37209 182.552 2.57765 198.326 0.0417174C199.874 -0.226436 200.791 2.01982 199.253 2.74041C194.762 4.77032 191.363 9.02732 188.644 13.0126C185.706 17.3375 182.55 21.6468 179.203 25.6615C171.636 34.7133 160.987 39.7446 149.84 42.9373C138.595 46.1407 126.972 47.6895 115.724 50.8539C109.909 52.4964 104.277 54.7302 98.7701 57.2066C93.2245 59.6873 87.8253 62.6055 82.8906 66.163C77.2623 70.2303 72.5287 75.2645 67.2872 79.8021C65.3969 81.4487 63.4268 82.9067 61.4114 84.3106C60.917 84.8381 60.4032 85.3676 59.8871 85.8777C71.1868 83.3585 82.5357 81.11 94.0224 79.3985C103.957 77.9162 113.953 76.8215 123.961 76.1988C131.699 75.7261 139.438 75.6279 147.182 75.3912C149.109 74.8055 151.028 74.1418 153.006 73.6492C156.594 72.7435 160.144 71.6646 163.508 70.1524C167.022 68.5647 170.013 66.3441 173.12 64.1107C176.336 61.7865 179.557 59.5013 182.795 57.1945C189.253 52.6025 195.754 48.0451 202.327 43.5983C208.293 39.5532 214.19 35.417 220.915 32.7282C226.638 30.4253 232.635 28.9996 238.76 28.388C250.988 27.1475 263.338 28.6347 275.445 30.4247C289.274 32.4597 303.538 34.6838 317.538 33.0521C319.29 32.8406 319.896 35.4955 318.092 35.7719C313.283 36.5154 308.992 38.563 304.672 40.7123C300.018 43.0558 295.445 45.5878 290.713 47.7624C285.982 49.937 280.613 51.6884 275.223 52.5349C269.602 53.4266 263.922 53.5951 258.231 53.6662C252.639 53.7461 247.011 53.6722 241.434 54.2436C235.759 54.8256 230.088 55.6241 224.454 56.5763C218.763 57.5544 213.099 58.7664 207.528 60.3032C201.956 61.8205 196.755 64.0268 191.411 66.1896C185.541 68.5875 179.513 70.628 173.505 72.6663C171.471 73.3623 169.429 73.9804 167.365 74.5811C177.38 74.1943 187.431 73.9612 197.368 74.6675C217.176 71.8673 237.31 72.0486 256.816 76.0452C262.159 77.1166 267.478 78.5061 272.71 80.1812C285.257 84.1907 297.559 89.7454 308.622 96.9542C320.791 104.89 333.667 111.368 346.871 117.415C354.284 120.823 361.745 124.128 369.124 127.579C376.438 130.979 383.519 134.956 390.924 138.108C392.185 138.641 392.402 140.806 390.77 141.024C375.338 143.089 359.225 143.611 343.706 142.53C328.089 141.46 313.073 138.135 299.612 129.926C286.07 121.687 274.376 110.88 261.742 101.398C252.222 94.237 242.243 88.2898 231.255 84.4646C227.356 83.0773 223.331 81.98 219.142 81.1767C210.481 79.5221 201.545 79.495 192.763 79.2538C183.804 79.0123 174.839 79.2644 165.9 79.5728C152.777 80.024 139.602 80.185 126.472 80.9327C126.861 81.0675 127.268 81.1807 127.662 81.3545C130.66 82.6235 133.415 84.3726 136.237 86.0158C141.967 89.3521 148.194 90.9379 154.739 91.8184C157.981 92.2522 161.269 92.5626 164.539 92.8947C167.79 93.2288 171.039 93.721 174.298 93.9556C180.72 94.4356 187.174 94.1232 193.592 94.5642C196.89 94.7945 200.21 95.2197 203.435 96.0301C204.631 96.3329 205.776 96.7006 206.925 97.1072C208.837 97.8246 210.704 98.6653 212.538 99.5687C224.954 105.624 235.678 114.408 246.225 123.211C252.257 128.23 258.18 133.517 264.611 138.038C267.727 140.202 270.976 141.956 274.372 143.615C277.601 145.194 280.525 146.866 283.249 149.229C284.315 150.138 284.156 151.753 282.701 152.149C270.861 155.319 258.562 157.888 246.273 157.676C240.445 157.585 234.799 156.625 229.473 154.27C223.36 151.568 217.841 147.814 212.601 143.714C202.266 135.598 192.702 126.055 180.356 120.999C179.696 120.736 179.036 120.473 178.359 120.231C171.695 117.727 164.756 116.121 158.005 113.902C154.405 112.719 150.738 111.464 147.52 109.45C144.832 107.772 142.519 105.56 140.412 103.247C135.591 97.9382 131.103 92.6123 124.844 88.9397C119.111 85.5644 112.617 84.067 106.12 82.905C104.832 83.0264 103.546 83.1672 102.305 83.3622C102.032 83.3921 101.809 83.3377 101.638 83.2183C85.209 85.3528 68.938 88.5741 52.766 92.1593C55.8419 92.3352 58.9045 92.5717 61.9737 92.8666C65.2008 93.164 68.3739 93.5067 71.4808 94.5074C77.8592 96.5696 83.5598 100.185 88.9763 104.088C94.6717 108.197 100.465 112.118 106.382 115.907C109.628 117.997 112.945 120.02 116.454 121.627C119.796 123.154 123.303 124.21 126.854 125.122C134.2 127.019 141.406 128.892 148.52 131.545C153.558 133.438 158.499 135.52 163.349 137.848C165.198 138.71 167.035 139.633 168.854 140.578C175.211 143.885 181.712 147.432 186.913 152.424C189.844 155.238 192.491 158.34 195.281 161.308C196.934 163.079 198.83 164.548 200.676 166.101C202.845 167.894 205.056 169.723 206.834 171.914C208.09 173.472 209.524 175.583 208.728 177.682C208.472 178.4 207.709 178.819 206.973 178.584C204.132 177.672 201.248 176.904 198.479 175.748C195.44 174.463 192.528 172.909 189.636 171.352C186.807 169.828 183.974 168.265 181.045 166.909C177.952 165.493 174.754 164.562 171.45 163.74C164.229 161.908 156.779 160.87 149.347 160.166L148.808 160.107C141.773 159.437 134.623 159.333 127.62 158.227C116.801 156.493 106.391 152.368 98.4804 144.597C93.9069 140.109 91.006 134.688 87.5465 129.387C83.5147 123.183 78.523 117.577 73.2081 112.441C70.2318 109.572 67.1319 106.835 63.9278 104.228C61.2881 102.092 58.5509 99.9659 55.4901 98.4869C52.9506 97.2663 50.114 96.3937 47.3502 96.0062C44.0086 95.5636 40.5531 95.8828 37.2168 96.2088C36.8833 96.2256 36.6389 96.1538 36.427 96.0192C21.2634 99.8095 6.18153 103.985 -9.21598 106.539C-20.7787 108.456 -32.4226 109.633 -44.0942 110.556C-36.2383 116.026 -26.421 117.258 -16.9546 117.266C-6.12656 117.283 4.75361 115.796 15.5564 116.664C27.0347 117.576 38.9353 119.645 48.9356 125.609C54.8204 129.106 59.9021 133.913 64.7436 138.688C70.0497 143.924 75.1065 149.404 80.0571 154.995C85.5695 161.215 90.7934 167.86 97.1947 173.193C100.189 175.685 103.32 177.985 106.414 180.308C109.53 182.649 112.506 185.162 115.67 187.399C116.717 188.133 116.776 189.94 115.477 190.497C110.163 192.755 103.585 192.292 97.9949 191.484C91.9436 190.609 86.0062 188.972 80.2425 186.941C74.2712 184.814 68.4198 182.162 63.2107 178.532C60.4774 176.622 57.9698 174.432 55.7441 171.935C53.5853 169.509 51.8491 166.8 49.8898 164.215C45.9516 159.046 41.5316 154.698 36.1754 150.986C31.5653 147.783 26.5883 145.193 21.3398 143.185C15.8015 141.05 10.0716 139.508 4.27002 138.211C-1.53161 136.914 -7.43573 136.121 -13.1698 134.54C-19.6569 132.746 -25.7526 129.845 -30.6309 125.094C-33.1035 122.683 -35.2902 120.181 -38.1857 118.23C-38.7825 117.823 -39.3946 117.456 -40.0067 117.089C-41.668 116.324 -43.2857 115.417 -44.821 114.362C-46.0192 113.685 -47.2217 112.969 -48.3548 112.166C-48.6964 111.927 -48.7954 111.564 -48.7127 111.239C-48.7343 111.222 -48.7364 111.202 -48.7559 111.204C-48.8445 111.115 -48.8747 111.02 -48.9438 110.929C-66.3763 112.187 -83.8557 113.017 -101.231 114.801C-97.133 114.944 -93.0375 115.068 -88.9727 115.451C-84.0335 115.896 -79.1207 116.64 -74.3756 118.013C-69.9982 119.269 -65.8122 120.94 -61.6348 122.711C-57.4986 124.467 -53.4884 126.512 -49.73 128.96C-45.8635 131.495 -42.396 134.527 -38.8917 137.535C-31.9004 143.572 -24.8705 149.783 -16.6991 154.173C-11.7979 156.792 -6.62102 158.867 -1.59382 161.196C3.37275 163.511 8.14634 166.045 12.7656 168.97C13.6761 169.541 13.6757 171.158 12.6165 171.57C4.03438 174.955 -5.44944 176.408 -14.6364 176.25C-24.1588 176.09 -33.3157 173.327 -41.1715 167.857C-45.0789 165.13 -48.4395 161.632 -51.0655 157.641C-54.2141 152.839 -57.0942 147.968 -60.7564 143.518C-64.1204 139.449 -67.7293 135.487 -71.9455 132.28C-75.82 129.313 -80.1025 126.942 -84.5566 124.985C-94.5573 120.637 -105.425 118.455 -116.14 116.769C-116.281 116.745 -116.365 116.695 -116.488 116.65C-119.71 117.121 -122.908 117.629 -126.12 118.197C-128.731 118.661 -131.317 119.181 -133.917 119.742L-134.397 115.357C-124.328 112.953 -114.114 111.322 -103.849 110.158C-103.739 110.087 -103.609 110.014 -103.5 109.923C-103.474 109.624 -103.346 109.354 -103.053 109.144C-102.195 108.518 -101.362 107.835 -100.571 107.137C-99.0683 105.375 -97.79 103.362 -96.6634 101.405C-94.5211 97.7387 -92.7983 93.8427 -91.0343 89.962C-87.487 82.1983 -83.4032 74.6519 -76.8222 69.021C-68.96 62.3033 -59.3116 59.4719 -49.7101 56.2119C-39.5585 52.7535 -30.0789 47.1207 -20.6283 42.1221C-9.87354 36.4285 1.06969 30.6551 12.8618 27.4115C14.3735 26.9896 15.5481 28.8922 14.7171 30.1269C12.1046 34.002 8.84591 37.1985 5.86587 40.7786C2.69072 44.5576 0.356602 48.9937 -2.58072 52.9636C-8.14093 60.5335 -15.498 66.8213 -23.3403 71.9198C-31.5141 77.2322 -40.3869 81.0237 -49.6458 83.9899C-54.7897 85.6378 -59.9747 87.2705 -65.1466 88.8426C-70.1452 90.376 -75.2629 91.9027 -79.936 94.2483C-84.0848 96.3394 -87.5164 99.3972 -90.7708 102.633C-92.282 104.139 -93.8624 105.554 -95.4686 106.913C-96.0805 107.809 -96.7356 108.669 -97.4339 109.495C-82.1961 108.004 -66.8665 107.351 -51.5668 106.424C-50.1136 106.009 -48.6626 105.574 -47.2158 105.1C-46.9509 104.637 -46.4763 104.289 -45.7641 104.31C-45.4265 104.332 -45.1147 104.298 -44.7792 104.301C-42.6501 103.575 -40.5426 102.831 -38.461 102.031C-32.6321 99.7956 -26.6778 97.6252 -21.0043 95.0517Z" fill="#FDFCFC"/>
</svg>
