<svg width="36" height="36" viewBox="0 0 36 36" fill="none" xmlns="http://www.w3.org/2000/svg">
<path d="M35.3113 17.0477L30.1465 15.5686C27.8207 14.9115 25.7021 13.6671 23.9933 11.9547C22.2846 10.2423 21.043 8.11905 20.3872 5.78817L18.9113 0.612188C18.8371 0.431098 18.7108 0.276209 18.5486 0.167205C18.3863 0.0581999 18.1953 0 18 0C17.8046 0 17.6137 0.0581999 17.4514 0.167205C17.2892 0.276209 17.1629 0.431098 17.0887 0.612188L15.6128 5.78817C14.957 8.11905 13.7154 10.2423 12.0067 11.9547C10.2979 13.6671 8.17929 14.9115 5.85345 15.5686L0.688655 17.0477C0.490344 17.1041 0.315806 17.2238 0.191524 17.3887C0.0672422 17.5535 0 17.7544 0 17.961C0 18.1676 0.0672422 18.3686 0.191524 18.5334C0.315806 18.6982 0.490344 18.8179 0.688655 18.8743L5.85345 20.3534C8.17929 21.0106 10.2979 22.2549 12.0067 23.9673C13.7154 25.6798 14.957 27.803 15.6128 30.1339L17.0887 35.3099C17.145 35.5086 17.2644 35.6835 17.4289 35.8081C17.5933 35.9326 17.7939 36 18 36C18.2061 36 18.4067 35.9326 18.5711 35.8081C18.7356 35.6835 18.855 35.5086 18.9113 35.3099L20.3872 30.1339C21.043 27.803 22.2846 25.6798 23.9933 23.9673C25.7021 22.2549 27.8207 21.0106 30.1465 20.3534L35.3113 18.8743C35.5097 18.8179 35.6842 18.6982 35.8085 18.5334C35.9328 18.3686 36 18.1676 36 17.961C36 17.7544 35.9328 17.5535 35.8085 17.3887C35.6842 17.2238 35.5097 17.1041 35.3113 17.0477Z" fill="white"/>
</svg>
